<?xml version="1.0" encoding="utf-8"?>
<!-- Generator: Adobe Illustrator 18.0.0, SVG Export Plug-In . SVG Version: 6.00 Build 0)  -->
<!DOCTYPE svg PUBLIC "-//W3C//DTD SVG 1.1//EN" "http://www.w3.org/Graphics/SVG/1.1/DTD/svg11.dtd">
<svg version="1.1" id="Слой_1" xmlns="http://www.w3.org/2000/svg" xmlns:xlink="http://www.w3.org/1999/xlink" x="0px" y="0px"
	 viewBox="0 0 566.9299927 170.0800018" enable-background="new 0 0 566.9299927 170.0800018" xml:space="preserve">
<g>
	<g>
		<path fill="#A1BF39" d="M73.5376968,56.1200981L76.0139465,53.4375l0.6190567-0.7222366l1.5476532,1.4444809l-2.1667099,2.2698898
			l-3.7143707,4.0239029l-3.8175507-4.0239029l-2.0635452-2.2699013l1.4444809-1.341301l0.7222366,0.7222328l2.579422,2.6826019
			c-0.1031723-2.0635414-0.1031723-4.9524994-0.2063522-7.016037h2.2698898
			C73.4345169,51.1676025,73.5376968,53.9533844,73.5376968,56.1200981L73.5376968,56.1200981z"/>
		<path fill="#5C9BD4" d="M77.9743042,107.1926956l2.3730774,2.3730774l-1.341301,1.4444656l-0.7222366-0.7222366
			l-2.8889618-2.7857742c0.2063522,2.1667252,0.5158844,5.1588516,0.8254166,7.4287415l-2.2698898,0.1031799
			c-0.2063522-2.2698898-0.6190567-5.158844-0.8254166-7.4287338l-2.2698898,2.8889542l-0.6190643,0.8254242l-1.6508255-1.4444733
			l1.9603653-2.4762421l3.4048386-4.3334274L77.9743042,107.1926956L77.9743042,107.1926956z"/>
		<path fill="#C3177B" d="M145.5552216,76.445961c-1.1349487-1.238121-2.4762421-2.7857742-3.7143707-3.9207306l1.2381134,3.6111984
			l0.3095398,0.9285889l-0.8254242,0.6190643l-1.0317688-3.0953064l-2.0635376-5.1588516l2.579422-1.238121l1.4444733-0.6190643
			l0.722229,2.0635452l-0.4127045,0.2063522l-1.6508331,0.722229c1.1349487,1.1349487,2.6826019,2.6826019,3.714386,3.9207306
			L145.5552216,76.445961L145.5552216,76.445961z"/>
		<path fill="#9C9B9A" d="M122.0308838,144.7491302l-0.619072,0.3095245l-2.4762497,1.134964
			c1.7540054-0.6190796,4.0239029-1.5476532,5.6747437-2.2698975l-0.1031799,0.2063446
			c-1.7540054,0.7222443-4.0239029,1.7540131-5.7779083,2.3730774l2.0635376-0.5158844l0.5158768-0.2063446l-1.238121,0.6190643
			l-1.7540054,0.5158844l-2.8889618,0.4127045l3.7143707-1.5476532l2.06353-0.9285889L122.0308838,144.7491302
			L122.0308838,144.7491302z"/>
		<g>
			<polygon fill="#9C9B9A" points="11.8378611,50.4453659 11.4251537,51.2707748 11.9410381,50.1358299 12.3537455,49.5167694 
				12.9728079,48.2786484 			"/>
			<path fill="#9C9B9A" d="M12.2505703,49.9294815l0.2063551-0.5158882l1.0317698-1.8571854
				c-0.9285927,1.8571854-2.2698946,4.3334274-3.0953093,6.1906166l-0.2063551,0.4127083
				c0.8254147-1.7540054,1.9603624-4.2302513,2.9921322-5.9842644l0.9285927-1.547657l-0.3095303,0.309536l-0.8254156,1.5476532
				L12.2505703,49.9294815L12.2505703,49.9294815z"/>
		</g>
		<path fill="#9C9B9A" d="M14.8299952,46.3182869l0.1031771-0.4127121l0.6190624-1.4444771
			c-0.7222395,1.5476532-1.7540092,3.6111946-2.4762468,5.2620239l-0.4127083,0.5158844
			c0.7222395-1.6508293,1.6508322-3.817543,2.5794249-5.3652l-1.4444771,2.4762497l-0.4127083,0.7222366l0.3095303-0.8254204
			l1.2381248-2.1667137l2.1667175-3.4048462l-1.2381248,2.0635414l-0.5158854,1.1349449L14.8299952,46.3182869
			L14.8299952,46.3182869z"/>
		<path fill="#9C9B9A" d="M18.5443649,41.8816719v-0.2063484l0.1031761-0.8254204
			c-0.4127064,1.238121-1.1349468,2.7857742-1.4444771,4.0239029l-0.5158844,0.6190605
			c0.4127083-1.238121,1.0317707-2.9921341,1.5476551-4.127079l-1.1349468,2.0635414l-0.4127083,0.5158844l0.103178-0.5158844
			l1.0317688-1.8571892l1.7540092-2.785778l-0.5158844,1.238121l-0.0000019,0.7222443L18.5443649,41.8816719L18.5443649,41.8816719z
			"/>
		<path fill="#9C9B9A" d="M22.7746239,37.1355324l-0.1031761-0.1031761l-0.4127102-0.3095322
			c-0.1031742,0.8254166-0.2063541,1.8571892-0.2063541,2.579422l-0.6190624,0.6190605
			c0.103178-0.8254166,0.2063541-1.9603615,0.4127083-2.7857742l-0.8254166,1.6508293l-0.2063541,0.5158844l-0.2063541-0.2063484
			l0.7222385-1.4444809l1.1349468-2.0635376l0.3095303,0.5158844l0.4127083,0.2063522L22.7746239,37.1355324L22.7746239,37.1355324z
			"/>
		<path fill="#9C9B9A" d="M27.4175873,32.492569h-0.3095341l-0.9285946,0.2063522
			c0.3095303,0.4127083,0.8254147,0.8254166,1.1349449,1.2381172l-0.7222347,0.619072
			c-0.3095303-0.4127121-0.7222404-0.9285965-0.9285946-1.4444809l-0.3095303,1.0317688l-0.1031761,0.4127121h-0.5158844
			l0.3095303-0.9285965l0.4127102-1.238121l1.0317688-0.3095322l0.8254147-0.2063522L27.4175873,32.492569L27.4175873,32.492569z"/>
		<path fill="#9C9B9A" d="M31.9573727,28.1591396L31.5446625,28.36549l-1.4444752,0.6190605
			c0.7222385-0.1031761,1.7540092-0.1031761,2.4762478-0.1031761l-0.6190624,0.5158844
			c-0.7222404,0-1.6508312-0.1031742-2.3730698-0.1031742l0.2063541,0.5158844l0.1031761,0.2063503l-0.7222404,0.3095341
			l-0.1031761-0.4127083l-0.3095303-0.4127102l1.8571854-1.0317707l1.2381248-0.6190586L31.9573727,28.1591396
			L31.9573727,28.1591396z"/>
		<path fill="#9C9B9A" d="M36.2908058,24.2384109l-0.5158844,0.3095341l-1.9603653,1.0317688
			c1.1349449-0.4127083,2.6826019-1.0317688,3.8175507-1.3413029l-0.6190605,0.5158844
			c-1.1349449,0.3095341-2.5794258,0.7222366-3.7143707,1.1349449h0.8254166h0.2063522l-0.9285927,0.5158844h-0.6190605
			l-1.1349449,0.4127102l2.5794258-1.5476551l1.6508293-0.9285946L36.2908058,24.2384109L36.2908058,24.2384109z"/>
		<path fill="#9C9B9A" d="M40.2115288,21.1431007l-0.6190605,0.3095341l-2.3730698,1.3413048
			c1.547657-0.7222366,3.5080223-1.7540092,5.0556755-2.3730698l-0.5158844,0.4127083
			c-1.4444809,0.6190643-3.5080185,1.4444752-4.9524956,2.1667194l1.341301-0.5158844l0.3095284-0.1031761l-1.1349487,0.722229
			l-1.0317688,0.4127083l-1.9603653,1.1349449l3.1984863-2.0635395l1.9603653-1.1349449L40.2115288,21.1431007
			L40.2115288,21.1431007z"/>
		<path fill="#9C9B9A" d="M43.4100189,18.976387l-0.7222404,0.4127083l-2.579422,1.444479
			c1.8571815-0.9285946,4.2302513-2.2698936,6.0874405-3.0953083l-0.5158882,0.3095264
			c-1.8571854,0.8254147-4.2302551,2.0635395-5.9842644,2.9921341l1.8571854-0.9285946l0.5158844-0.206356l-1.3412971,0.7222404
			l-1.547657,0.8254185l-1.5476532,0.9285946l0.8254128-0.5158844c1.1349449-0.7222366,2.7857819-1.6508312,3.9207268-2.2698956
			L43.4100189,18.976387L43.4100189,18.976387z"/>
		<path fill="#9C9B9A" d="M4.8218269,69.945816l0.1031775-0.6190643l0.5158849-2.3730698
			c-0.5158849,2.2698898-1.1349473,5.1588516-1.4444773,7.4287415l-0.1031775,0.4127045
			c0.4127076-2.2698898,0.9285924-5.2620239,1.4444773-7.5319214l-0.1031771,0.3095322l1.1349468-4.1270752l-0.7222395,2.7857742
			L5.2345347,68.191803L4.8218269,69.945816L4.8218269,69.945816z"/>
		<path fill="#9C9B9A" d="M7.1948967,65.612381v-0.5158844l0.1031775-1.857193
			c-0.4127078,2.0635376-0.9285927,4.7461395-1.1349473,6.8096771L5.7504196,70.668045
			c0.3095298-2.0635376,0.7222395-4.8493195,1.2381244-6.9128571l-0.9285922,3.1984863l-0.2063551,0.8254166l0.1031775-1.0317688
			l0.7222395-2.6826019l1.4444776-4.5397873l-0.4127078,2.785778l-0.1031771,1.5476532L7.1948967,65.612381L7.1948967,65.612381z"/>
		<path fill="#9C9B9A" d="M11.4251537,59.7312927l-0.103178-0.3095322l-0.3095303-1.3413048
			c-0.2063541,1.7540054-0.5158844,4.2302551-0.6190615,5.9842644l-0.6190624,0.8254242
			c0.2063541-1.8571892,0.4127073-4.3334312,0.7222395-6.0874443l-0.9285927,3.0953064l-0.2063551,0.8254204l-0.1031771-0.7222366
			l0.8254156-2.579422l1.5476542-4.3334312l0.2063551,2.0635414l0.3095303,1.1349449L11.4251537,59.7312927L11.4251537,59.7312927z"
			/>
		<path fill="#9C9B9A" d="M17.5125942,52.3025475l-0.3095303-0.2063522l-0.9285927-0.8254204
			c0.103178,1.4444809,0.103178,3.5080185,0.3095303,4.9524994l-0.8254147,1.0317688
			c-0.1031771-1.5476532-0.2063541-3.5080185-0.1031771-5.0556717l-0.8254147,2.888958l-0.2063551,0.8254204l-0.4127073-0.4127121
			l0.7222395-2.4762497l1.3412991-3.9207268l1.0317707,1.238121l0.8254147,0.6190605L17.5125942,52.3025475L17.5125942,52.3025475z"
			/>
		<path fill="#9C9B9A" d="M24.7349834,44.3579216l-0.4127102-0.1031761l-1.4444752-0.2063599
			c0.4127102,1.1349487,0.9285946,2.6826019,1.341301,3.7143707l-0.9285946,1.0317688
			c-0.4127102-1.1349449-0.9285946-2.6825981-1.2381248-3.9207268l-0.6190624,2.4762497l-0.2063541,0.7222366l-0.7222404-0.2063522
			l0.5158844-2.1667137l0.9285927-3.3016624l1.7540092,0.5158844l1.2381248,0.2063522L24.7349834,44.3579216L24.7349834,44.3579216z
			"/>
		<path fill="#9C9B9A" d="M32.3700829,36.5164719h-0.5158863l-1.8571854,0.1031761
			c0.7222404,0.7222366,1.7540092,1.7540054,2.4762478,2.5794258l-1.0317688,1.0317688
			c-0.7222385-0.8254204-1.6508293-1.8571892-2.3730698-2.6826019l-0.2063541,1.9603653l-0.1031761,0.5158844h-1.0317688
			l0.2063541-1.7540054l0.3095303-2.579422l2.4762497-0.2063522l1.6508312-0.1031761L32.3700829,36.5164719L32.3700829,36.5164719z"
			/>
		<path fill="#9C9B9A" d="M40.1083565,29.1909084l-0.6190605,0.1031761l-2.3730698,0.5158844
			c1.1349449,0.4127102,2.579422,0.9285946,3.7143669,1.444479l-1.0317688,0.9285965
			c-1.0317688-0.5158863-2.4762497-1.1349468-3.5080185-1.547657l0.3095284,1.4444809l0.1031761,0.4127083l-1.2381248,0.2063522
			l-0.3095245-1.2381306l-0.4127083-1.8571873l3.1984825-0.7222366l1.9603653-0.4127102L40.1083565,29.1909084
			L40.1083565,29.1909084z"/>
		<path fill="#9C9B9A" d="M47.433918,22.6907558l-0.7222404,0.2063503l-2.6825981,0.7222366
			c1.4444809,0.1031742,3.4048386,0.2063503,4.8493195,0.4127083l-0.9285965,0.8254204
			c-1.4444771-0.2063522-3.3016624-0.4127102-4.6429634-0.5158863l0.7222404,0.9285946l0.206356,0.3095341l-1.4444809,0.4127102
			l-0.6190605-0.8254185l-1.1349449-1.0317707l3.7143707-1.1349449l2.3730698-0.6190605L47.433918,22.6907558L47.433918,22.6907558z
			"/>
		<path fill="#9C9B9A" d="M54.1404228,17.325552l-0.8254166,0.2063541l-2.9921341,0.9285946
			c1.7540092-0.2063541,4.127079-0.4127083,5.8810844-0.5158844L55.37854,18.5636768
			c-1.7540092,0.1031761-4.0239029,0.2063541-5.7779083,0.4127102l1.238121,0.4127083l0.3095322,0.1031761l-1.5476456,0.6190605
			l-1.0317726-0.4127102l-1.8571854-0.3095303l4.2302551-1.444479l2.5794258-0.8254147L54.1404228,17.325552L54.1404228,17.325552z"
			/>
		<path fill="#9C9B9A" d="M59.6088028,13.5080032l-0.8254204,0.2063541l-3.1984863,0.9285946
			c2.0635414-0.4127092,4.7461395-0.9285946,6.8096809-1.1349449l-0.7222366,0.4127092
			c-1.9603615,0.3095303-4.6429634,0.7222395-6.706501,1.1349449h1.7540054h0.4127083l-1.6508293,0.5158854h-1.4444809
			l-2.6825981,0.3095303l4.4366112-1.5476551l2.6826019-0.8254147L59.6088028,13.5080032L59.6088028,13.5080032z"/>
		<path fill="#9C9B9A" d="M63.2199974,11.7539978l-0.8254204,0.2063541l-3.1984863,0.8254156
			c2.2698936-0.5158854,5.1588516-1.1349459,7.4287415-1.5476551l-0.4127045,0.2063513
			c-2.1667099,0.4127092-5.1588478,0.9285936-7.3255615,1.444479l2.3730736-0.5158854l0.6190605-0.1031752l-1.6508293,0.4127102
			l-1.8571892,0.4127092l-3.5080185,0.928586l4.4366112-1.3413l0.8254204-0.2063541l2.1667137-0.5158854L63.2199974,11.7539978
			L63.2199974,11.7539978z"/>
		<path fill="#9C9B9A" d="M3.6868799,88.2081375l-0.1031773-0.6190643l-0.3095312-2.2698975
			c0.1031773,2.2698975,0.3095312,5.2620392,0.5158849,7.531929l-0.1031773,0.5158844
			c-0.2063539-2.2698898-0.4127076-5.3652039-0.5158849-7.6351013v3.4048386v0.8254166l-0.1031775-1.238121v-2.7857742
			l0.2063539-4.8493118l0.2063537,3.4048386l0.3095312,1.857193L3.6868799,88.2081375L3.6868799,88.2081375z"/>
		<path fill="#9C9B9A" d="M6.7821894,82.5334015L6.5758343,82.120697l-0.7222395-1.7540054
			c0.2063546,2.1667099,0.4127078,4.9524994,0.7222395,7.1192093l-0.5158849,0.8254166
			c-0.2063546-2.1667099-0.6190619-5.0556717-0.7222385-7.1192093l-0.3095312,3.5080185l-0.1031771,0.9285965l-0.3095312-0.9285965
			l0.2063537-2.9921341l0.6190624-5.0556717l0.8254151,2.6826019l0.6190619,1.4444733L6.7821894,82.5334015L6.7821894,82.5334015z"
			/>
		<path fill="#9C9B9A" d="M12.4569235,74.5887833l-0.4127083-0.3095398l-1.2381239-1.238121
			c0.3095303,1.9603653,0.8254147,4.5397949,1.2381239,6.3969727l-0.8254147,1.0317688
			c-0.4127073-1.9603653-0.9285927-4.5397873-1.1349468-6.5001526l-0.4127083,3.5080185l-0.1031771,0.9285965L8.9489059,77.787262
			l0.4127073-2.9921341l0.8254156-5.0556717l1.5476542,1.857193l1.1349478,1.0317688L12.4569235,74.5887833L12.4569235,74.5887833z"
			/>
		<path fill="#9C9B9A" d="M20.5047283,64.7869644l-0.5158844-0.2063522l-1.8571854-0.7222328
			c0.5158844,1.6508293,1.2381248,3.9207268,1.8571854,5.5715599l-1.1349468,1.341301
			c-0.5158844-1.6508255-1.341301-3.920723-1.8571854-5.6747284l-0.3095322,3.5080032l-0.103178,0.9285889l-0.9285917-0.4127045
			l0.4127073-2.8889618l0.8254147-4.8493156l2.3730698,1.0317726l1.5476551,0.5158844L20.5047283,64.7869644L20.5047283,64.7869644z
			"/>
		<path fill="#9C9B9A" d="M30.1001873,54.2629089l-0.6190605-0.1031761l-2.2698936-0.3095322
			c0.8254147,1.4444809,1.8571835,3.3016586,2.785778,4.6429634l-1.2381248,1.3413048
			c-0.8254147-1.4444809-1.8571835-3.3016586-2.6826-4.7461395l-0.4127083,3.1984863l-0.1031761,0.8254166l-1.2381248-0.1031761
			l0.3095303-2.6825981l0.6190605-4.436615l3.0953102,0.4127121l1.9603634,0.2063484L30.1001873,54.2629089L30.1001873,54.2629089z"
			/>
		<path fill="#9C9B9A" d="M40.3147087,43.7388611h-0.7222404h-2.6825981
			c1.1349449,1.1349449,2.5794258,2.5794258,3.6111946,3.7143707l-1.341301,1.3413048
			c-1.0317688-1.1349487-2.4762497-2.6826019-3.5080185-3.8175468l-0.1031761,2.7857742v0.7222366l-1.4444771,0.1031761
			l0.1031723-2.3730736l0.1031761-3.8175468l3.7143707-0.1031761l2.3730698-0.1031723L40.3147087,43.7388611L40.3147087,43.7388611z
			"/>
		<path fill="#9C9B9A" d="M50.6324081,33.9370499l-0.8254166,0.1031723l-3.0953102,0.309536
			c1.341301,0.8254204,3.1984863,1.9603653,4.6429672,2.7857742l-1.341301,1.238121
			c-1.341301-0.8254204-3.0953102-2.0635376-4.4366112-2.888958l0.3095322,2.3730736l0.1031761,0.6190605l-1.6508331,0.2063484
			l-0.2063522-1.9603615l-0.4127121-3.0953102l4.2302551-0.4127083l2.5794258-0.309536L50.6324081,33.9370499L50.6324081,33.9370499
			z"/>
		<path fill="#9C9B9A" d="M60.5373955,25.1670055l-0.8254166,0.1031742l-3.3016624,0.4127102
			c1.6508293,0.6190605,3.9207306,1.3413029,5.4683838,1.9603634l-1.238121,1.0317707
			c-1.6508293-0.6190605-3.7143707-1.444479-5.3652-2.0635395l0.7222366,1.8571892l0.2063484,0.5158844l-1.7540092,0.3095341
			l-0.6190643-1.6508389l-1.0317688-2.3730736l4.6429634-0.7222347l2.785778-0.4127102L60.5373955,25.1670055L60.5373955,25.1670055
			z"/>
		<path fill="#9C9B9A" d="M69.5137939,17.9446163l-0.9285889,0.1031761l-3.5080185,0.4127083
			c1.8571854,0.3095303,4.436615,0.8254147,6.396965,1.2381248l-1.1349411,0.9285908
			c-1.857193-0.4127102-4.3334351-1.0317707-6.2937927-1.341301l1.1349411,1.341301l0.3095322,0.4127102l-1.8571854,0.3095341
			l-0.9285965-1.2381287l-1.7540054-1.6508312l4.9524994-0.8254147l2.9921341-0.4127102L69.5137939,17.9446163
			L69.5137939,17.9446163z"/>
		<path fill="#9C9B9A" d="M76.9425354,12.7857676l-0.9285889,0.1031752l-3.6111984,0.4127092
			c2.1667175,0.2063551,4.9524994,0.4127102,7.016037,0.7222395l-0.8254166,0.5158815
			c-2.0635376-0.3095303-4.8493195-0.6190605-7.016037-0.8254156l1.6508255,0.8254156l0.4127121,0.2063541l-1.8571854,0.2063551
			l-1.3413086-0.7222395l-2.4762497-0.9285946l5.0556793-0.7222395l2.9921341-0.3095303L76.9425354,12.7857676
			L76.9425354,12.7857676z"/>
		<path fill="#9C9B9A" d="M81.8950272,10.412694h-0.9285965l-3.4048309,0.103179
			c2.2698898,0.1031752,5.2620239,0.2063551,7.5319214,0.5158854l-0.5158844,0.2063541
			c-2.2698898-0.2063541-5.2620239-0.4127092-7.5319214-0.5158844l2.2698898,0.3095303l0.5158844,0.1031752l-1.857193,0.1031752
			l-1.8571854-0.3095303l-3.3016586-0.3095303l4.8493118-0.3095303h2.7857742L81.8950272,10.412694L81.8950272,10.412694z"/>
		<path fill="#9C9B9A" d="M7.4012513,106.3672943l-0.3095298-0.5158844l-1.1349473-2.0635452
			c0.7222395,2.1667252,1.6508322,5.1588516,2.4762473,7.3255768l-0.2063551,0.6190643
			c-0.8254151-2.1667175-1.8571849-5.158844-2.4762468-7.3255692l0.7222395,3.4048462l0.2063546,0.8254166l-0.5158849-1.1349564
			l-0.6190624-2.7857742l-0.8254156-4.9524994l1.341301,3.095314l0.9285922,1.7540054L7.4012513,106.3672943L7.4012513,106.3672943z
			"/>
		<path fill="#DB9123" d="M10.393384,103.6846848l-0.8254156,1.0317688l-0.7222395-1.9603577l0.2063551-0.3095322
			l0.9285917-1.238121c-0.8254147-0.9285889-2.0635395-2.0635376-2.785779-2.9921265l-0.1031775-2.0635376
			c0.8254151,0.9285889,1.8571849,2.1667252,2.7857795,2.9921265l-1.2381248-3.4048462l-0.3095303-0.9285812l0.5158854-0.8254242
			l1.0317698,2.8889618l2.0635395,4.8493118L10.393384,103.6846848L10.393384,103.6846848z"/>
		<path fill="#9C9B9A" d="M17.7189503,90.2716751l-0.6190624-0.3095322l-2.0635405-1.1349564
			c0.8254156,1.9603577,2.0635405,4.6429672,2.9921331,6.5001602l-0.9285927,1.2381134
			c-0.9285927-1.96035-2.1667175-4.6429596-2.9921322-6.6033173l0.1031771,3.817543v1.0317688l-1.0317698-0.5158844
			l-0.103178-3.1984863l0.103178-5.4683838l2.785779,1.6508331l1.8571844,0.8254242L17.7189503,90.2716751L17.7189503,90.2716751z"
			/>
		<path fill="#9C9B9A" d="M27.3144073,78.7158585l-0.7222385-0.1031723l-2.6826-0.6190643
			c1.0317688,1.7540054,2.3730698,4.2302551,3.5080185,5.9842682l-1.341301,1.5476532
			c-1.0317688-1.7540054-2.4762478-4.2302551-3.4048386-6.0874405l-0.1031761,3.9207306v1.0317688l-1.3412991-0.3095322
			l0.103178-3.3016663l0.3095284-5.5715561l3.6111927,0.9285965l2.2698956,0.4127045L27.3144073,78.7158585L27.3144073,78.7158585z"
			/>
		<path fill="#9C9B9A" d="M38.7670555,66.1282654l-0.8254166-0.1031799l-2.9921341-0.3095322
			c1.2381248,1.6508331,2.7857819,3.7143707,4.0239067,5.3651962l-1.4444809,1.5476608
			c-1.2381248-1.6508331-2.785778-3.7143707-3.920723-5.3652039l-0.1031761,3.7143707v0.9285965l-1.6508312-0.1031799
			l0.1031761-3.0953064l0.2063541-5.2620239l4.2302551,0.4127083l2.5794258,0.2063484L38.7670555,66.1282654L38.7670555,66.1282654z
			"/>
		<path fill="#9C9B9A" d="M50.8387566,53.7470245h-0.9285927l-3.3016586-0.1031761
			c1.4444771,1.4444809,3.3016624,3.3016624,4.6429634,4.6429672l-1.547657,1.5476532
			c-1.3412971-1.4444809-3.1984825-3.3016586-4.5397873-4.7461395v3.4048424v0.9285965h-1.7540092v-2.888958v-4.7461395
			l4.6429634,0.1031723h2.8889542L50.8387566,53.7470245L50.8387566,53.7470245z"/>
		<path fill="#9C9B9A" d="M63.2199974,41.984848h-0.9285965l-3.6111946,0.1031761
			c1.547657,1.238121,3.7143707,2.7857742,5.2620239,4.0239029l-1.5476532,1.4444809
			c-1.5476532-1.238121-3.6111946-2.8889618-5.2620239-4.127079l0.3095322,3.0953064l0.1031761,0.8254204l-1.9603653,0.1031761
			l-0.2063484-2.5794258l-0.4127083-4.2302551l5.0556717-0.1031761l3.0953102-0.1031723L63.2199974,41.984848L63.2199974,41.984848z
			"/>
		<path fill="#9C9B9A" d="M74.9821701,31.5639744h-1.0317688l-3.7143707,0.1031761
			c1.7540054,1.0317707,4.1270828,2.3730717,5.8810883,3.5080166l-1.4444809,1.238121
			c-1.7540054-1.0317688-4.0239029-2.4762497-5.8810806-3.5080185l0.6190567,2.6826019l0.1031799,0.7222328l-2.0635452,0.1031761
			l-0.5158844-2.2698898l-0.7222366-3.7143612l5.3652039-0.2063503l3.1984863-0.1031761L74.9821701,31.5639744
			L74.9821701,31.5639744z"/>
		<path fill="#9C9B9A" d="M85.6094055,22.8971062h-1.0317688h-3.817543
			c1.9603577,0.9285946,4.5397873,2.0635395,6.5001526,2.9921341l-1.238121,1.0317707
			c-1.9603653-0.9285946-4.436615-2.1667156-6.3969727-3.0953102l1.0317688,2.1667156l0.2063522,0.6190605l-2.0635376,0.1031742
			l-0.8254242-1.8571873l-1.5476532-2.8889599l5.4683838-0.1031742h3.1984863L85.6094055,22.8971062L85.6094055,22.8971062z"/>
		<path fill="#9C9B9A" d="M94.4826202,16.8096676l-0.9285889-0.1031761l-3.7143707-0.2063541
			c2.0635376,0.7222385,4.9524994,1.7540092,7.016037,2.6826l-1.0317688,0.6190605
			c-2.0635376-0.8254166-4.8493195-1.9603653-6.9128571-2.6826l1.4444809,1.6508293l0.4127121,0.5158844h-2.0635452
			l-1.238121-1.444479l-2.2698898-2.1667147l5.3652039,0.2063551l3.0953064,0.2063541L94.4826202,16.8096676L94.4826202,16.8096676z
			"/>
		<path fill="#9C9B9A" d="M100.3637085,13.9207125l-0.9285965-0.2063551l-3.4048386-0.6190596
			c2.1667099,0.7222395,5.158844,1.6508293,7.3255615,2.4762487l-0.6190567,0.2063551
			c-2.1667175-0.8254156-5.0556793-1.8571854-7.3255692-2.4762497l2.0635376,1.1349459l0.515892,0.3095293l-1.857193-0.2063541
			l-1.6508331-1.0317698l-3.0953064-1.4444799l4.9524994,0.7222404l2.8889542,0.5158844L100.3637085,13.9207125
			L100.3637085,13.9207125z"/>
		<polygon fill="#9C9B9A" points="101.4986572,13.6111822 102.1177216,13.8175373 100.4668808,13.301652 98.6097031,12.7857676 
			101.1891251,13.5080032 		"/>
		<polygon fill="#9C9B9A" points="15.5522327,127.8280945 15.1395254,127.3122101 14.6236401,126.4868011 13.075985,124.0105438 
			13.3855152,124.4232635 14.6236401,126.3836212 		"/>
		<path fill="#9C9B9A" d="M16.0681171,123.597847l-0.5158844-0.5158844l-1.8571854-1.857193
			c1.3413,2.0635452,3.0953102,4.7461472,4.5397873,6.7065048l-0.2063541,0.6190643
			c-1.341301-1.96035-3.1984873-4.6429596-4.5397873-6.7064972l1.4444771,3.198494l0.4127073,0.8254166l-0.9285927-0.9285889
			l-1.2381239-2.6826096l-1.8571854-4.7461472l2.4762478,2.7857819l1.6508312,1.5476532L16.0681171,123.597847
			L16.0681171,123.597847z"/>
		<path fill="#9C9B9A" d="M19.9888439,116.1691055l-0.6190624-0.3095322l-2.3730698-1.3413086
			c1.341301,1.9603577,3.0953102,4.6429672,4.5397873,6.5001526l-0.6190624,1.0317764
			c-1.4444771-1.9603577-3.3016644-4.5397873-4.5397873-6.6033249l1.0317707,3.5080109l0.3095303,0.9285889l-1.1349487-0.7222366
			l-0.9285917-2.9921265l-1.2381248-5.1588516l3.1984873,2.0635452l2.0635395,1.1349487L19.9888439,116.1691055
			L19.9888439,116.1691055z"/>
		<path fill="#9C9B9A" d="M27.3144073,105.9545746l-0.8254147-0.2063522l-2.8889542-0.9285812
			c1.444479,1.96035,3.3016644,4.4366074,4.7461395,6.2938004l-1.0317707,1.341301
			c-1.444479-1.8571854-3.4048386-4.436615-4.7461395-6.396965l0.6190605,3.817543l0.2063541,1.0317688l-1.444479-0.4127045
			l-0.6190624-3.1984863l-0.7222385-5.5715561l3.9207268,1.3413086l2.4762478,0.7222366L27.3144073,105.9545746
			L27.3144073,105.9545746z"/>
		<path fill="#9C9B9A" d="M37.838459,93.2638016l-0.9285927-0.1031799l-3.3016624-0.5158844
			c1.4444771,1.8571854,3.4048386,4.2302628,4.9524918,6.0874329l-1.4444771,1.6508408
			c-1.4444809-1.857193-3.5080223-4.2302628-4.9524956-6.0874405l0.3095284,4.0238953l0.1031761,1.0317764l-1.7540092-0.2063522
			l-0.3095303-3.4048462l-0.3095303-5.8810806l4.6429634,0.7222366l2.888958,0.4126968L37.838459,93.2638016L37.838459,93.2638016z"
			/>
		<path fill="#9C9B9A" d="M50.2196999,79.5412674l-0.9285965-0.1031723l-3.6111946-0.3095322
			c1.547657,1.7540054,3.6111946,4.0239029,5.1588478,5.7779083l-1.5476532,1.6508255
			c-1.5476532-1.7540054-3.6111946-4.0239029-5.1588478-5.7779083l0.2063522,4.0239029l0.1031761,1.0317764l-1.9603615-0.1031799
			l-0.206356-3.4048462l-0.206356-5.7779083l5.0556755,0.4127121l3.0953102,0.3095322L50.2196999,79.5412674L50.2196999,79.5412674z
			"/>
		<path fill="#9C9B9A" d="M63.5295296,65.9219131l-1.0317688-0.1031799l-3.8175468-0.2063446
			c1.6508331,1.6508255,3.8175468,3.817543,5.4683838,5.4683838l-1.6508293,1.6508255
			c-1.6508293-1.6508255-3.8175468-3.817543-5.4683838-5.4683838l0.2063522,3.9207306l0.1031761,1.0317688h-2.0635414
			l-0.2063522-3.3016586l-0.206356-5.4683914l5.4683838,0.3095322l3.3016586,0.2063522L63.5295296,65.9219131L63.5295296,65.9219131
			z"/>
		<path fill="#9C9B9A" d="M89.9428329,41.6753235l-1.0317688-0.1031761l-3.9207306-0.309536
			c1.857193,1.4444809,4.2302551,3.4048424,6.0874481,4.9524994l-1.5476532,1.3413048
			c-1.7540054-1.547657-4.2302551-3.5080185-5.9842682-4.9524994l0.5158844,3.3016586l0.1031723,0.9285965h-2.1667175
			l-0.5158768-2.9921341l-0.8254166-4.6429634l5.674736,0.4127083l3.4048386,0.3095322L89.9428329,41.6753235L89.9428329,41.6753235
			z"/>
		<path fill="#9C9B9A" d="M101.6018372,32.183033l-1.0317688-0.2063484l-3.817543-0.5158863
			c1.9603577,1.3413029,4.4366074,3.1984844,6.2937927,4.7461414l-1.3413086,1.0317688
			c-1.8571854-1.4444809-4.3334274-3.4048424-6.2937927-4.7461395l0.8254242,2.888958l0.2063446,0.8254204l-2.1667099-0.2063522
			l-0.7222366-2.4762497l-1.3413086-4.0239029l5.674736,0.6190605l3.3016586,0.5158844L101.6018372,32.183033L101.6018372,32.183033
			z"/>
		<path fill="#9C9B9A" d="M111.3004684,25.476532l-0.9285965-0.3095341l-3.6111908-0.9285946
			c1.9603577,1.3413029,4.6429596,3.0953083,6.5001526,4.5397873l-1.1349487,0.7222366
			c-1.9603653-1.3413048-4.5397873-3.3016605-6.5001526-4.5397892l1.238121,2.4762497l0.3095322,0.7222347l-2.0635376-0.3095341
			l-1.0317688-2.1667137l-1.857193-3.3016605l5.3652039,1.1349449l3.0953064,0.8254185L111.3004684,25.476532L111.3004684,25.476532
			z"/>
		<path fill="#9C9B9A" d="M117.6974411,22.3812218l-0.8254166-0.4127102l-3.1984863-1.3412991
			c2.0635452,1.3412991,4.7461395,2.9921303,6.7065048,4.4366093l-0.7222366,0.3095341
			c-1.9603653-1.3413048-4.6429596-3.1984844-6.7065048-4.4366093l1.7540054,1.9603596l0.4127121,0.5158844l-1.7540054-0.6190586
			l-1.4444809-1.6508312l-2.6825943-2.5794239l4.7461395,1.7540092l2.6825943,1.2381248L117.6974411,22.3812218
			L117.6974411,22.3812218z"/>
		<path fill="#9C9B9A" d="M123.6817017,24.7542953c-2.0635376-1.3413048-4.6429596-3.1984844-6.8096771-4.4366093
			l2.2698898,1.4444752l0.6190643,0.4127102l-1.5476608-0.8254204l-1.8571854-1.2381229l-2.1667175-1.2381248
			C117.0783844,20.5240402,120.7927551,22.793932,123.6817017,24.7542953l0.1031876,0.1031761L123.6817017,24.7542953
			L123.6817017,24.7542953z"/>
		<path fill="#9C9B9A" d="M28.9652424,142.9951172l-0.6190605-0.4127045l-2.0635395-1.8571777
			c1.8571854,1.6508331,4.3334332,3.8175354,6.2937927,5.3651886l0.206356,0.2063599
			c-2.4762497-2.0635376-5.6747341-4.8493195-8.0478039-7.1192017l-1.2381248-1.3413086l2.3730698,2.2698822l1.8571854,1.5476685
			L28.9652424,142.9951172L28.9652424,142.9951172z"/>
		<path fill="#9C9B9A" d="M29.4811268,138.6616821l-0.7222404-0.3095398l-2.5794239-1.3413086
			c1.8571854,1.6508484,4.3334332,3.9207306,6.2937927,5.4683838l-0.2063522,0.6190643
			c-1.8571854-1.6508331-4.4366093-3.7143707-6.2937946-5.4683838l2.1667137,2.7857819l0.6190605,0.722229l-1.2381248-0.722229
			l-1.8571835-2.3730774l-2.9921341-4.2302551l3.5080185,2.1667175l2.2698936,1.1349487L29.4811268,138.6616821
			L29.4811268,138.6616821z"/>
		<path fill="#9C9B9A" d="M33.5050278,131.2329407l-0.8254166-0.2063599l-3.0953083-1.0317688
			c1.8571835,1.6508331,4.3334332,3.9207306,6.2937946,5.4683838l-0.6190605,1.0317688
			c-1.8571854-1.6508331-4.4366112-3.8175354-6.2937946-5.4683838l1.7540092,3.1985016l0.4127083,0.8254089l-1.5476532-0.5158844
			l-1.444479-2.6826019l-2.2698956-4.8493195l4.2302551,1.5476532l2.5794239,0.8254242L33.5050278,131.2329407
			L33.5050278,131.2329407z"/>
		<path fill="#9C9B9A" d="M40.9337692,120.8120728l-0.9285927-0.1031876l-3.5080185-0.6190643
			c1.8571815,1.6508331,4.3334312,3.920723,6.1906166,5.5715485l-1.0317688,1.341301
			c-1.8571854-1.6508331-4.4366112-3.817543-6.1906204-5.5715485l1.2381248,3.6111984l0.3095322,0.9285812l-1.7540092-0.3095322
			l-1.1349449-2.9921265l-1.6508331-5.3651962l4.8493195,1.0317688l2.9921341,0.5158844L40.9337692,120.8120728
			L40.9337692,120.8120728z"/>
		<path fill="#9C9B9A" d="M51.560997,107.9149475l-1.0317688-0.1031799l-3.920723-0.4127045
			c1.8571815,1.7540054,4.2302513,4.0238953,6.0874405,5.674736l-1.4444771,1.6508331
			c-1.8571854-1.6508331-4.3334351-3.920723-6.0874443-5.6747284l0.8254166,4.0238953l0.2063522,1.0317688l-2.0635376-0.1031876
			l-0.7222404-3.4048386l-1.0317688-5.8810883l5.46838,0.619072l3.3016624,0.3095322L51.560997,107.9149475L51.560997,107.9149475z"
			/>
		<path fill="#9C9B9A" d="M64.1485901,93.9860535l-1.0317688-0.1031799l-4.0239029-0.3095322
			c1.7540054,1.7540054,4.2302513,4.1270752,5.9842682,5.777916l-1.547657,1.6508331
			c-1.8571892-1.7540054-4.2302551-4.0238953-5.9842682-5.777916l0.5158844,4.1270828l0.1031761,1.0317688h-2.1667137
			l-0.5158844-3.5080109l-0.7222404-5.9842682l5.7779121,0.5158844l3.4048424,0.3095322L64.1485901,93.9860535
			L64.1485901,93.9860535z"/>
		<path fill="#9C9B9A" d="M77.664772,80.0571518l-1.0317688-0.1031723l-4.1270828-0.4127121
			c1.7540054,1.7540054,4.1270828,4.1270828,5.8810883,5.8810883l-1.6508331,1.6508255
			c-1.7540054-1.7540054-4.1270752-4.1270752-5.8810806-5.8810806l0.4127121,4.1270752l0.1031723,1.0317764h-2.1667175
			l-0.4127045-3.5080185l-0.5158844-5.9842682l5.8810806,0.5158844l3.5080185,0.3095322V80.0571518L77.664772,80.0571518z"/>
		<path fill="#9C9B9A" d="M91.3873138,66.9536819l-1.0317688-0.1031723l-4.0239029-0.515892
			c1.7540054,1.7540131,4.1270752,4.2302551,5.7779083,5.9842682l-1.6508331,1.5476608
			c-1.7540054-1.857193-4.0239029-4.2302551-5.7779083-5.9842682l0.4127121,4.0239029l0.1031723,1.0317688l-2.1667099-0.1031723
			l-0.3095398-3.4048462l-0.6190567-5.7779083l5.8810806,0.7222366l3.4048462,0.5158844V66.9536819L91.3873138,66.9536819z"/>
		<path fill="#9C9B9A" d="M104.5939636,55.2946815l-1.0317688-0.2063522l-3.9207306-0.8254204
			c1.7540054,1.8571892,4.0239029,4.2302551,5.674736,6.0874443l-1.5476532,1.3413048
			c-1.7540054-1.8571892-4.0239029-4.3334312-5.7779083-6.0874443l0.4127045,3.8175468l0.1031799,1.0317688l-2.1667175-0.2063522
			l-0.4127121-3.3016586l-0.7222366-5.4683838l5.7779083,1.0317688l3.3016663,0.7222366L104.5939636,55.2946815
			L104.5939636,55.2946815z"/>
		<path fill="#9C9B9A" d="M116.4593124,45.6992264l-0.9285889-0.309536l-3.7143707-1.1349449
			c1.7540054,1.8571892,4.0239029,4.2302551,5.674736,6.1906204l-1.3413086,1.1349449
			c-1.6508255-1.8571892-3.9207306-4.3334312-5.674736-6.1906204l0.6190643,3.5080185l0.1031723,0.9285965l-2.0635376-0.4127121
			l-0.5158844-2.9921303l-1.0317688-4.9524994l5.4683838,1.4444771l3.0953064,1.0317726L116.4593124,45.6992264
			L116.4593124,45.6992264z"/>
		<path fill="#5C9BD4" d="M125.0230103,42.0880318l-1.857193,0.9285927l-1.5476532-1.6508293l0.619072-0.3095322
			l2.1667175-1.0317726c-2.0635376-0.7222328-4.8493118-1.7540054-6.9128494-2.3730736l-0.4127121-1.7540054
			c2.0635376,0.7222366,4.8493195,1.6508293,6.9128647,2.3730736l-3.095314-2.888958l-0.8254166-0.7222366l0.9285889-0.6190605
			l2.6826019,2.4762497l4.2302628,4.436615L125.0230103,42.0880318L125.0230103,42.0880318z"/>
		<path fill="#9C9B9A" d="M132.9676361,35.5878792l-0.7222443-0.5158844l-2.8889465-2.0635414
			c1.6508331,1.8571892,3.9207153,4.3334312,5.5715485,6.2937927l-0.7222443,0.309536
			c-1.6508331-1.8571892-3.8175354-4.436615-5.5715485-6.2937927l1.3413086,2.6825981l0.3095245,0.7222366l-1.6508331-0.9285965
			l-1.1349487-2.2698898l-2.1667252-3.6111927l4.3334274,2.7857761l2.3730774,1.8571892L132.9676361,35.5878792
			L132.9676361,35.5878792z"/>
		<path fill="#9C9B9A" d="M132.9676361,32.8021011c1.6508331,1.8571892,3.9207306,4.3334312,5.4683838,6.2937965
			l-0.2063599-0.2063522c-1.6508331-1.8571892-3.8175354-4.4366112-5.4683838-6.2937927l1.857193,2.1667137l0.4127045,0.6190605
			l-1.3413086-1.238121l-1.5476532-1.8571892l-2.8889618-2.888958l1.2381287,1.1349468L132.9676361,32.8021011l0.5158844,0.6190605
			L132.9676361,32.8021011L132.9676361,32.8021011z"/>
		<path fill="#C3177B" d="M45.1640244,154.1382141l2.0635414,0.8254242l0.5158844,0.2063599l1.5476532,0.722229
			l-1.6508293-0.6190491l-1.1349449-0.5158844l-5.0556755-2.6826172l-0.6190605-0.3095245l-2.1667137-1.3413086l1.2381248,0.6190643
			l0.6190605,0.4127045l2.5794258,1.5476532c-0.206356-0.2063446-0.5158882-0.6190643-0.6190605-0.9285889l2.0635338,1.134964
			C44.7513199,153.519165,44.9576721,153.9318695,45.1640244,154.1382141L45.1640244,154.1382141z"/>
		<path fill="#9C9B9A" d="M45.9894447,149.8047943l-0.8254166-0.2063599l-2.8889542-0.722229
			c2.1667137,1.1349487,4.9524956,2.579422,7.2223892,3.5080109l-0.206356,0.6190643
			c-2.1667137-1.0317688-5.0556717-2.3730774-7.2223892-3.5080109l2.5794258,2.0635376l0.7222404,0.5158844l-1.4444809-0.4126892
			l-2.1667137-1.6508484l-3.6111946-3.1984863l4.127079,1.2381134l2.4762497,0.6190796L45.9894447,149.8047943
			L45.9894447,149.8047943z"/>
		<path fill="#9C9B9A" d="M49.8069878,142.6855927l-0.9285927-0.1031952l-3.3016663-0.4126892
			c2.0635414,1.1349487,4.9524956,2.6826019,7.1192131,3.8175354l-0.5158844,0.9285889
			c-2.1667137-1.1349487-5.0556717-2.579422-7.1192131-3.7143707l2.0635414,2.4762421l0.5158844,0.6190643l-1.6508293-0.2063599
			l-1.7540092-2.0635376l-2.888958-3.9207306l4.7461395,0.7222443l2.888958,0.3095245L49.8069878,142.6855927
			L49.8069878,142.6855927z"/>
		<path fill="#9C9B9A" d="M56.8230247,132.8837738h-0.9285927l-3.7143707-0.2063446
			c2.0635414,1.2381134,4.7461395,2.9921265,6.8096809,4.1270752l-0.9285965,1.2381134
			c-2.0635376-1.2381134-4.8493195-2.7857666-6.9128571-4.1270752l1.5476532,2.9921265l0.4127121,0.722229h-1.8571854
			l-1.341301-2.4762268l-2.1667137-4.5397949l5.2620239,0.4127045l3.0953064,0.1031799L56.8230247,132.8837738
			L56.8230247,132.8837738z"/>
		<path fill="#9C9B9A" d="M66.9343643,120.6057053h-1.0317688h-3.9207268
			c1.9603615,1.341301,4.5397911,3.3016586,6.5001488,4.6429596l-1.341301,1.5476608
			c-1.9603653-1.3413086-4.6429634-3.095314-6.5001526-4.5397873l1.0317688,3.5080109l0.309536,0.9285889l-2.0635414,0.1031876
			l-0.9285927-2.8889618l-1.3413048-5.2620316l5.6747322,0.1031799h3.3016624L66.9343643,120.6057053L66.9343643,120.6057053z"/>
		<path fill="#9C9B9A" d="M91.6968384,94.2955704l-1.0317688-0.1031799L86.744339,93.779686
			c1.6508331,1.6508408,3.9207306,3.9207306,5.5715637,5.5715561l-1.5476532,1.5476532
			c-1.6508331-1.6508408-3.9207306-3.817543-5.5715637-5.4683838l0.4127121,3.9207306l0.1031723,1.0317688h-2.1667099
			l-0.3095398-3.3016586l-0.5158768-5.7779083l5.674736,0.515892l3.3016586,0.3095322V94.2955704L91.6968384,94.2955704z"/>
		<path fill="#9C9B9A" d="M104.6971436,81.9143448l-0.9285889-0.2063522l-3.7143707-0.6190567
			c1.5476532,1.8571854,3.6111908,4.2302551,5.0556717,6.0874329l-1.5476532,1.4444733
			c-1.5476532-1.7540054-3.6111984-4.2302551-5.1588516-5.9842682l0.2063522,3.920723l0.1031723,1.0317764l-2.0635376-0.2063522
			l-0.2063522-3.3016586l-0.4127045-5.777916l5.4683838,0.9285965l3.0953064,0.6190643L104.6971436,81.9143448
			L104.6971436,81.9143448z"/>
		<path fill="#9C9B9A" d="M117.1815567,70.8744049l-0.8254166-0.3095398l-3.4048462-1.0317688
			c1.4444809,1.9603653,3.3016663,4.5397873,4.6429672,6.5001526l-1.4444809,1.238121
			c-1.341301-1.9603653-3.1984863-4.5397873-4.6429596-6.396965l0.1031723,3.920723v1.0317688l-1.9603653-0.3095322
			l-0.1031723-3.3016586l-0.3095322-5.674736l5.158844,1.4444809l2.8889618,0.9285965L117.1815567,70.8744049
			L117.1815567,70.8744049z"/>
		<path fill="#9C9B9A" d="M128.5310211,61.691658l-0.8254242-0.4127121l-3.0953064-1.4444771
			c1.238121,2.0635376,2.9921265,4.7461357,4.2302704,6.8096809l-1.3413086,1.0317688
			c-1.238121-2.0635376-2.8889618-4.7461395-4.2302628-6.8096809l0.2063446,3.7143669v0.9285965l-1.7540054-0.5158844
			l-0.1031799-3.1984825l-0.4127045-5.3652l4.7461472,1.9603615l2.5794296,1.238121V61.691658L128.5310211,61.691658z"/>
		<path fill="#9C9B9A" d="M137.9201355,55.1915054l-0.6190796-0.5158844l-2.6826019-1.9603653
			c1.1349487,2.0635376,2.7857819,4.8493156,3.8175507,7.016037l-1.0317688,0.7222366
			c-1.134964-2.1667137-2.6826172-4.9524994-3.9207306-7.016037l0.3095245,3.4048424l0.1031952,0.9285927l-1.5476532-0.8254166
			l-0.3095398-2.9921341l-0.6190643-4.9524994l4.1270752,2.6826019l2.2698822,1.6508293L137.9201355,55.1915054
			L137.9201355,55.1915054z"/>
		<path fill="#9C9B9A" d="M144.2139282,52.1993713l-0.5158844-0.6190605l-2.1667175-2.4762497
			c1.1349487,2.1667137,2.579422,4.9524994,3.6111908,7.2223892l-0.6190643,0.2063484
			c-1.0317688-2.1667137-2.4762421-5.0556717-3.6111908-7.2223854l0.722229,2.9921341l0.1031799,0.8254166l-1.2381134-1.1349449
			l-0.5158844-2.5794258l-1.2381287-4.2302513l3.3016663,3.4048424l1.7539978,2.1667137L144.2139282,52.1993713
			L144.2139282,52.1993713z"/>
		<path fill="#9C9B9A" d="M146.9997101,52.6120796l-0.4127045-0.7222366l-1.6508331-2.888958
			c1.0317688,2.1667175,2.579422,4.9524994,3.5080109,7.2223892l-0.2063599-0.2063522
			c-1.0317688-2.1667137-2.3730621-5.0556717-3.5080109-7.2223854l1.134964,2.579422l0.3095245,0.7222366l-0.9285889-1.4444809
			l-0.9285736-2.1667137l-1.857193-3.6111946l2.579422,4.127079l0.4127045,0.7222366l1.4444733,2.7857742L146.9997101,52.6120796
			L146.9997101,52.6120796z"/>
		<path fill="#9C9B9A" d="M63.9422379,159.9161377l-0.7222328-0.1031799l-2.6826019-0.4127045
			c2.2698898,0.4127045,5.3652,1.1349487,7.7382774,1.4444733l0.2063446,0.2063446
			c-2.2698898-0.4126892-5.46838-0.9285889-7.7382698-1.4444733l3.1984825,0.8254242l0.8254242,0.2063599l-1.2381248-0.2063599
			l-2.6825981-0.6190643l-4.5397911-1.4444733l3.9207306,0.722229l2.3730736,0.3095398L63.9422379,159.9161377
			L63.9422379,159.9161377z"/>
		<path fill="#9C9B9A" d="M64.3549423,156.3049469h-0.8254204l-3.0953102-0.1031799
			c2.2698898,0.5158844,5.3652039,1.2381134,7.7382736,1.6508331l-0.1031723,0.5158844
			c-2.3730774-0.4127045-5.4683838-1.0317688-7.7382774-1.6508331l2.785778,1.2381134l0.7222366,0.3095398h-1.547657
			l-2.3730736-1.0317688l-3.9207268-2.0635376l4.4366112,0.3095245l2.6826019,0.1031799L64.3549423,156.3049469
			L64.3549423,156.3049469z"/>
		<path fill="#9C9B9A" d="M67.6566086,150.1143188h-0.9285965l-3.4048424,0.1031952
			c2.2698936,0.6190643,5.2620277,1.5476532,7.5319252,2.0635376l-0.5158844,0.8254089
			c-2.2698898-0.6190643-5.3652039-1.3412933-7.5319252-2.0635376l2.3730736,1.7540131l0.6190643,0.4127045l-1.7540054,0.1031799
			l-2.0635414-1.4444733l-3.3016624-2.7857819h4.9524994l2.8889618-0.1031799L67.6566086,150.1143188L67.6566086,150.1143188z"/>
		<path fill="#9C9B9A" d="M73.847229,141.5506287l-0.9285965,0.1031952l-3.6111908,0.2063446
			c2.1667099,0.8254242,4.9524994,1.9603577,7.1192093,2.6826019l-0.8254166,1.0317688
			c-2.1667175-0.722229-5.0556717-1.7539978-7.2223892-2.579422l1.8571854,2.2698975l0.5158844,0.5158844l-1.8571854,0.2063446
			l-1.5476532-1.857193l-2.579422-3.5080109l5.3651962-0.2063446l3.0953064-0.2063446L73.847229,141.5506287L73.847229,141.5506287z
			"/>
		<path fill="#9C9B9A" d="M82.7204437,130.8202362h-0.9285889l-3.8175507,0.2063446
			c1.9603653,1.0317688,4.5397949,2.4762421,6.5001526,3.4048462l-1.1349411,1.3413086
			c-1.9603653-0.9285889-4.6429672-2.2698975-6.6033325-3.3016663l1.238121,2.7857819l0.3095398,0.722229l-1.9603653,0.2063599
			l-1.1349487-2.3730774l-1.6508255-4.3334351l5.5715561-0.2063446l3.1984863-0.1031799L82.7204437,130.8202362
			L82.7204437,130.8202362z"/>
		<path fill="#9C9B9A" d="M93.1413193,119.2644119h-0.9285965l-3.7143631-0.1031799
			c1.7540054,1.238121,4.0239029,2.9921265,5.7779083,4.2302628l-1.238121,1.341301
			c-1.7540054-1.238121-4.1270828-2.8889542-5.8810883-4.1270752l0.8254166,3.198494l0.2063522,0.8254166l-1.9603653,0.1031799
			l-0.722229-2.6826019l-1.1349487-4.8493195l5.4683838,0.1031876l3.0953064,0.1031799L93.1413193,119.2644119
			L93.1413193,119.2644119z"/>
		<path fill="#9C9B9A" d="M104.4907913,107.70858l-0.9285965-0.1031799l-3.4048462-0.4127045
			c1.5476532,1.5476532,3.5080185,3.5080109,4.9524994,5.0556641l-1.341301,1.3413086
			c-1.5476608-1.4444733-3.6111984-3.4048462-5.0556793-4.9524994l0.4127121,3.5080109l0.1031723,0.9285889h-1.9603577
			l-0.4127121-2.8889618l-0.6190643-5.1588516l5.1588516,0.5158844l2.8889618,0.3095398L104.4907913,107.70858
			L104.4907913,107.70858z"/>
		<path fill="#9C9B9A" d="M115.8402557,96.7718277l-0.8254166-0.2063446l-3.1984863-0.7222366
			c1.238121,1.7540054,2.9921341,4.0238953,4.2302551,5.777916l-1.3413086,1.238121
			c-1.238121-1.7540054-2.9921341-4.0238953-4.3334274-5.674736l0.1031723,3.6111984v0.9285812l-1.7540054-0.2063522
			l-0.1031723-3.0953064l-0.2063522-5.3651962l4.7461395,1.0317688l2.6826019,0.7222366V96.7718277L115.8402557,96.7718277z"/>
		<path fill="#9C9B9A" d="M126.8801956,86.9700165l-0.7222366-0.3095322l-2.7857742-1.238121
			c1.0317688,1.9603577,2.4762421,4.5397797,3.4048462,6.5001526l-1.238121,1.1349564
			c-1.0317688-1.9603577-2.3730774-4.5397873-3.5080109-6.3969727l-0.1031876,3.7143784v0.9285889l-1.5476532-0.4127045
			l0.1031799-3.198494l0.1031723-5.4683838l4.2302628,1.6508331l2.3730774,1.0317688L126.8801956,86.9700165L126.8801956,86.9700165
			z"/>
		<path fill="#9C9B9A" d="M136.8883667,78.9222107l-0.6190796-0.4127121l-2.3730621-1.6508255
			c0.8254089,2.0635376,1.9603577,4.9524918,2.6826019,7.1192093l-1.1349487,0.9285965
			c-0.8254242-2.1667175-1.857193-4.9524994-2.7857819-7.016037l-0.2063446,3.7143707l-0.1031799,0.9285889l-1.3413086-0.7222366
			l0.1031799-3.0953064l0.2063446-5.3651962l3.714386,2.3730698l1.9603577,1.4444809L136.8883667,78.9222107L136.8883667,78.9222107
			z"/>
		<path fill="#9C9B9A" d="M150.7140656,70.5648727l-0.3095245-0.722229l-1.3413086-2.6826019
			c0.5158844,2.2698898,1.2381134,5.3651962,1.7539978,7.7382736l-0.5158844,0.2063522
			c-0.5158844-2.2698898-1.1349487-5.4683838-1.7539978-7.7382736l0.1031799,3.1984787v0.8254242l-0.8254089-1.238121v-2.7857742
			l-0.3095398-4.5397911l2.1667175,3.8175468l1.134964,2.3730698L150.7140656,70.5648727L150.7140656,70.5648727z"/>
		<path fill="#9C9B9A" d="M153.1903229,70.9775848l-0.2063446-0.8254166l-0.8254242-3.095314
			c0.5158844,2.2698898,1.1349487,5.3652039,1.5476532,7.7382736l-0.2063446-0.1031723
			c-0.4127045-2.3730774-0.9285889-5.4683838-1.5476532-7.7382736l0.4127045,2.7857742l0.1031799,0.7222366l-0.5158844-1.5476532
			l-0.3095398-2.3730774l-0.8254089-4.0239029l1.444458,4.436615l0.7222443,2.6826019L153.1903229,70.9775848
			L153.1903229,70.9775848z"/>
		<path fill="#9C9B9A" d="M83.1331558,161.0510864l-0.7222366,0.1031952l-2.7857742,0.3095245
			c2.3730774-0.1031799,5.4683838-0.3095245,7.8414459-0.5158844l0.2063522,0.1031799
			c-2.3730698,0.2063599-5.4683838,0.5158844-7.8414459,0.6190796h3.1984863h0.8254166l-1.341301,0.1031799h-2.6826019
			l-4.6429672-0.3095398l4.0239029-0.2063446l2.4762497-0.3095398L83.1331558,161.0510864L83.1331558,161.0510864z"/>
		<path fill="#9C9B9A" d="M83.4426804,158.2653046l-0.8254166,0.1031799l-3.0953064,0.5158844
			c2.3730698,0,5.4683762-0.1031799,7.8414459-0.2063446l-0.1031723,0.4126892
			c-2.3730774,0.1031952-5.4683838,0.3095398-7.8414536,0.3095398l2.8889618,0.4127045l0.7222366,0.1031799l-1.5476608,0.3095398
			l-2.4762497-0.3095398l-4.1270752-0.8254242l4.5397873-0.5158844l2.6826019-0.4126892L83.4426804,158.2653046
			L83.4426804,158.2653046z"/>
		<path fill="#9C9B9A" d="M86.1252899,153.3128204l-0.9285965,0.2063446l-3.3016586,0.6190796
			c2.2698898,0.1031799,5.2620239,0.3095245,7.5319214,0.3095245l-0.4127045,0.6190643
			c-2.2698898,0-5.3652039-0.1031799-7.6351013-0.2063446l2.4762497,0.9285889l0.6190567,0.2063446l-1.6508255,0.3095398
			l-2.1667175-0.7222443l-3.5080185-1.5476532l4.8493195-0.722229l2.8889542-0.5158844L86.1252899,153.3128204
			L86.1252899,153.3128204z"/>
		<path fill="#9C9B9A" d="M90.9746017,146.5031281l-0.9285889,0.1031799l-3.4048462,0.5158844
			c2.0635376,0.3095398,4.9524994,0.8254242,7.016037,1.134964L93.038147,149.08255
			c-2.1667175-0.3095245-4.9524994-0.6190643-7.1192169-1.0317688l1.9603653,1.4444733l0.5158844,0.3095398l-1.7540054,0.4127045
			l-1.7540054-1.134964l-2.7857742-2.3730621l5.0556717-0.7222443l2.8889618-0.4127045L90.9746017,146.5031281
			L90.9746017,146.5031281z"/>
		<path fill="#9C9B9A" d="M97.9906464,137.9394379l-0.9285965,0.1031799l-3.4048462,0.4127045
			c1.857193,0.6190643,4.3334351,1.5476532,6.1906204,2.0635376l-0.8254166,1.0317688
			c-1.857193-0.6190643-4.436615-1.3412933-6.2938004-1.9603577l1.4444809,1.9603577l0.4127121,0.5158844l-1.857193,0.3095398
			l-1.2381134-1.6508331l-1.9603653-3.1985016l5.0556717-0.5158844l2.8889542-0.3095245L97.9906464,137.9394379
			L97.9906464,137.9394379z"/>
		<path fill="#9C9B9A" d="M106.3479767,128.7566986h-0.8254166h-3.1984863
			c1.5476532,0.9285889,3.6111908,2.2698822,5.2620239,3.1984863l-1.0317688,1.0317688
			c-1.6508331-0.9285889-3.817543-2.0635376-5.3652039-2.9921265l0.9285965,2.4762421l0.2063522,0.6190643l-1.7540054,0.2063599
			l-0.8254166-2.0635376l-1.238121-3.8175507h4.8493118h2.6826019L106.3479767,128.7566986L106.3479767,128.7566986z"/>
		<path fill="#9C9B9A" d="M115.4275436,119.5739365l-0.7222366-0.1031876l-2.8889542-0.4126968
			c1.238121,1.2381134,2.8889542,2.9921188,4.2302551,4.2302628l-1.0317688,1.0317688
			c-1.3413086-1.238121-2.9921341-2.8889618-4.3334351-4.1270828l0.4127121,2.8889618l0.1031723,0.7222366h-1.5476532
			l-0.4127045-2.3730774l-0.6190643-4.3334274l4.3334274,0.6190643l2.3730774,0.4127045L115.4275436,119.5739365
			L115.4275436,119.5739365z"/>
		<path fill="#9C9B9A" d="M124.5071259,110.8038864l-0.619072-0.2063446l-2.4762421-0.8254242
			c0.9285889,1.5476608,2.1667252,3.7143784,3.095314,5.2620316l-1.0317688,0.9285889
			c-0.9285889-1.5476532-2.2698975-3.6111908-3.1984863-5.1588516v3.198494v0.8254242l-1.4444809-0.3095398l-0.1031723-2.6826019
			l-0.1031799-4.7461472l3.817543,1.238121l2.0635452,0.8254166V110.8038864L124.5071259,110.8038864z"/>
		<path fill="#9C9B9A" d="M133.2771606,102.9624481l-0.5158844-0.4126968l-2.0635376-1.3413086
			c0.6190643,1.857193,1.5476532,4.3334274,2.0635376,6.1906204l-1.0317688,0.8254166
			c-0.6190643-1.8571854-1.4444733-4.3334274-2.1667175-6.0874329l-0.3095398,3.4048462l-0.1031799,0.8254166l-1.1349487-0.5158844
			l0.2063446-2.8889618l0.4127045-5.0556641l3.1984863,1.9603577l1.6508484,1.238121L133.2771606,102.9624481
			L133.2771606,102.9624481z"/>
		<path fill="#9C9B9A" d="M141.3249817,96.5654831l-0.4127045-0.515892l-1.5476532-1.8571854
			c0.4126892,2.0635376,0.8254089,4.8493118,1.1349487,7.016037l-0.9285889,0.7222366
			c-0.3095398-2.0635376-0.8254242-4.8493118-1.2381134-6.9128571l-0.5158844,3.5080109l-0.1031952,0.9285889l-0.9285889-0.8254166
			l0.4127045-2.9921265l0.7222443-5.1588516l2.4762421,2.6826096l1.2381134,1.6508408L141.3249817,96.5654831
			L141.3249817,96.5654831z"/>
		<path fill="#9C9B9A" d="M148.0314789,91.9225159l-0.3095398-0.619072l-1.0317688-2.3730698
			c0.1031799,2.2698898,0.3095398,5.2620316,0.3095398,7.5319214L146.2774658,96.875
			c-0.1031799-2.2698898-0.2063446-5.2620316-0.4126892-7.5319214l-0.6190796,3.4048386l-0.2063446,0.9285889l-0.6190643-1.0317688
			l0.5158844-2.8889618l0.8254089-5.0556717l1.7540131,3.4048386l0.8254242,2.0635376L148.0314789,91.9225159
			L148.0314789,91.9225159z"/>
		<path fill="#9C9B9A" d="M152.4680939,89.7557907l-0.1031799-0.7222366l-0.5158844-2.7857742
			c0,2.3730774-0.1031952,5.4683838-0.2063599,7.8414612l-0.4127045,0.2063446
			c0.1031952-2.3730698,0.2063599-5.4683762,0.1031952-7.8414459l-0.5158844,3.1984863l-0.2063599,0.8254166l-0.3095245-1.341301
			l0.4126892-2.7857742l0.6190796-4.6429672l1.0317688,4.0239029l0.4126892,2.3730698L152.4680939,89.7557907
			L152.4680939,89.7557907z"/>
		<path fill="#9C9B9A" d="M154.4284515,90.0653305v-0.8254242l-0.1031799-3.0953064
			c-0.1031952,2.3730698-0.2063599,5.4683838-0.5158997,7.8414536l-0.2063446-0.1031799
			c0.2063446-2.3730774,0.4127045-5.4683838,0.4127045-7.8414536l-0.3095398,2.8889542l-0.1031799,0.8254166l-0.1031799-1.5476532
			l0.3095245-2.4762497l0.2063599-4.1270752l0.3095245,4.5397873v2.6826096L154.4284515,90.0653305L154.4284515,90.0653305z"/>
		<path fill="#9C9B9A" d="M103.5621948,157.8526001l-0.6190643,0.2063446l-2.4762497,0.8254242
			c2.1667175-0.722229,5.0556793-1.7539978,7.2223892-2.579422l0.3095398-0.1031799
			c-1.6508331,0.6190643-3.7143707,1.4444733-5.3652039,2.0635376l-4.6429596,1.3412933l1.8571854-0.5158844l2.0635376-0.722229
			L103.5621948,157.8526001L103.5621948,157.8526001z"/>
		<path fill="#9C9B9A" d="M102.1177216,157.4398956l-0.7222366,0.3095398l-2.7857742,1.0317688
			c2.2698898-0.7222443,5.3652039-1.6508331,7.5319214-2.579422l0.1031799,0.1031799
			c-2.2698898,0.8254242-5.2620239,1.857193-7.531929,2.579422l2.9921341-0.8254242l0.8254242-0.2063446l-1.3413086,0.5158844
			l-2.579422,0.722229l-4.436615,0.9285889l4.0239029-1.2381134l2.3730774-0.8254242L102.1177216,157.4398956
			L102.1177216,157.4398956z"/>
		<path fill="#9C9B9A" d="M102.3240738,155.5827026l-0.8254166,0.3095398l-2.9921341,1.0317688
			c2.2698898-0.6190643,5.2620239-1.4444733,7.5319214-2.1667175l-0.1031799,0.2063446
			c-2.2698898,0.7222443-5.2620239,1.6508331-7.5319214,2.2698975l2.7857742-0.4127045l0.7222366-0.1031799l-1.4444809,0.6190643
			l-2.4762497,0.4127045l-4.1270752,0.4127045l4.3334274-1.3413086l2.5794296-0.9285889L102.3240738,155.5827026
			L102.3240738,155.5827026z"/>
		<path fill="#9C9B9A" d="M104.0780792,152.2810516l-0.8254166,0.3095245l-3.095314,1.0317688
			c2.1667175-0.4126892,5.0556717-0.9285736,7.2223892-1.444458l-0.2063522,0.4126892
			c-2.1667099,0.5158844-5.0556717,1.2381287-7.2223892,1.5476685h2.4762497h0.6190643l-1.5476532,0.6190643l-2.1667175,0.1031799
			l-3.6111984-0.2063446l4.5397949-1.3413086l2.579422-0.8254242L104.0780792,152.2810516L104.0780792,152.2810516z"/>
		<path fill="#9C9B9A" d="M107.3797455,147.638092l-0.8254166,0.2063446l-2.9921341,0.8254242
			c1.9603653-0.1031952,4.5397873-0.3095398,6.5001526-0.5158844l-0.4127121,0.5158844
			c-1.9603653,0.2063446-4.6429596,0.5158844-6.6033249,0.722229l2.0635376,0.5158844l0.5158844,0.1031799l-1.5476532,0.5158844
			l-1.7540054-0.4127045l-2.9921341-1.0317688l4.5397873-1.1349487l2.579422-0.722229L107.3797455,147.638092
			L107.3797455,147.638092z"/>
		<path fill="#9C9B9A" d="M112.125885,141.8601685l-0.7222366,0.1031799l-2.8889542,0.5158844
			c1.6508255,0.2063599,3.920723,0.5158844,5.5715561,0.6190643l-0.5158844,0.6190796
			c-1.7540054-0.1031952-4.0239029-0.3095398-5.674736-0.5158844l1.5476532,1.0317688l0.4127121,0.2063446l-1.5476532,0.4127045
			l-1.3413086-0.8254242l-2.1667099-1.8571777l4.3334274-0.7222443l2.3730774-0.4127045L112.125885,141.8601685
			L112.125885,141.8601685z"/>
		<path fill="#9C9B9A" d="M117.800621,135.5663605h-0.6190643l-2.4762497,0.1031952
			c1.3413086,0.6190643,3.095314,1.444458,4.436615,1.9603424l-0.6190567,0.7222443
			c-1.3413086-0.5158844-3.1984863-1.2381287-4.5397873-1.7540131l0.9285889,1.6508484l0.3095398,0.4127045l-1.3413086,0.2063446
			l-0.9285965-1.3413086l-1.341301-2.579422l3.9207306-0.1031799h2.0635376L117.800621,135.5663605L117.800621,135.5663605z"/>
		<path fill="#9C9B9A" d="M123.8880539,129.272583l-0.5158844-0.1031799l-2.0635376-0.4127045
			c0.9285889,0.9285889,2.1667252,2.2698822,3.0953064,3.301651l-0.6190643,0.7222443
			c-1.0317688-0.9285889-2.2698898-2.1667328-3.3016586-3.0953064l0.4127045,2.0635376l0.1031799,0.5158844h-1.238121
			l-0.4127121-1.7540131l-0.6190567-3.3016586l3.3016586,0.619072l1.7540054,0.4127045L123.8880539,129.272583
			L123.8880539,129.272583z"/>
		<path fill="#9C9B9A" d="M130.1818542,123.2883148l-0.4127045-0.3095398l-1.6508331-0.9285812
			c0.5158844,1.341301,1.3413086,3.0953064,1.857193,4.5397797l-0.7222443,0.6190643
			c-0.6190643-1.341301-1.341301-3.0953064-1.96035-4.3334274v2.4762421v0.6190643l-0.9285889-0.3095322v-2.0635376
			l0.1031876-3.8175507l2.6826019,1.3413086l1.3413086,0.8254166L130.1818542,123.2883148L130.1818542,123.2883148z"/>
		<path fill="#9C9B9A" d="M136.2692871,117.923111l-0.2063446-0.4127045l-1.1349487-1.4444656
			c0.2063446,1.6508331,0.5158844,3.920723,0.6190643,5.5715485l-0.6190643,0.5158844
			c-0.2063599-1.6508408-0.5158844-3.817543-0.7222443-5.4683838l-0.5158844,2.7857742l-0.1031799,0.7222366l-0.722229-0.6190643
			l0.3095245-2.3730774l0.6190643-4.3334274l1.9603577,2.0635376l0.9285889,1.341301L136.2692871,117.923111L136.2692871,117.923111
			z"/>
		<path fill="#9C9B9A" d="M141.7376709,113.486496l-0.1031799-0.5158844l-0.6190643-1.9603577
			c-0.1031799,1.9603577-0.3095398,4.5397873-0.5158844,6.5001526l-0.6190643,0.4127045
			c0.1031799-1.9603577,0.3095245-4.5397797,0.4126892-6.3969727l-0.8254089,2.9921265l-0.2063599,0.8254242l-0.4126892-0.8254242
			l0.6190643-2.579422l1.1349487-4.5397797l1.1349487,2.7857742l0.5158844,1.6508408L141.7376709,113.486496L141.7376709,113.486496
			z"/>
		<path fill="#9C9B9A" d="M146.3806458,110.288002v-0.6190643l-0.1031952-2.3730774
			c-0.4126892,2.1667252-0.9285736,5.0556717-1.444458,7.2223892l-0.5158997,0.3095398
			c0.4127045-2.1667252,1.0317841-4.9524994,1.3413086-7.1192093l-1.0317688,3.0953064l-0.3095398,0.8254242l-0.2063446-1.1349564
			l0.8254242-2.6826096l1.4444733-4.6429596l0.4126892,3.4048462v2.0635376L146.3806458,110.288002L146.3806458,110.288002z"/>
		<path fill="#9C9B9A" d="M149.4759521,108.7403488l0.1031799-0.7222366l0.4127045-2.7857742
			c-0.6190643,2.2698898-1.4444733,5.2620316-2.1667175,7.5319214l-0.3095398,0.1031876
			c0.6190643-2.2698898,1.5476532-5.2620316,2.0635376-7.5319214l-1.0317688,2.9921265l-0.3095398,0.8254166l0.1031952-1.341301
			l0.9285736-2.5794296l1.4444733-4.436615l-0.3095245,4.0239029l-0.3095398,2.3730698L149.4759521,108.7403488
			L149.4759521,108.7403488z"/>
		<path fill="#9C9B9A" d="M150.8172607,108.9467163l0.2063446-0.8254166l0.722229-2.9921265
			c-0.722229,2.2698898-1.6508331,5.3651962-2.4762421,7.5319214l-0.1031799-0.1031799
			c0.7222443-2.2698975,1.7540131-5.2620392,2.4762421-7.531929l-1.0317688,2.7857819l-0.3095398,0.722229l0.3095398-1.4444656
			l0.8254242-2.4762421l1.2381134-4.1270828l-0.8254089,4.436615l-0.6190796,2.579422L150.8172607,108.9467163
			L150.8172607,108.9467163z"/>
		<path fill="#9C9B9A" d="M149.4759521,113.7960358c0.722229-2.1667252,1.857193-5.0556717,2.4762421-7.3255768
			l-0.8254242,2.4762421l-0.2063446,0.7222366l0.5158844-1.5476532l0.6190643-2.1667252l0.5158844-1.8571854
			c-0.5158844,1.7540054-1.1349487,4.1270752-1.6508331,5.777916l-1.5476532,4.2302628L149.4759521,113.7960358
			L149.4759521,113.7960358z"/>
		<path fill="#9C9B9A" d="M120.5863953,149.08255l-0.6190567,0.4127045l-2.3730774,1.5476532
			c1.9603653-1.3412933,4.6429596-3.0953064,6.500145-4.5397797h0.1031799
			c-1.8571854,1.4444733-4.4366074,3.3016663-6.396965,4.5397797l2.6826019-1.6508331l0.6190567-0.4127045l-1.1349411,0.8254242
			l-2.2698975,1.4444733l-4.0239029,2.2698822l3.4048462-2.0635376l1.9603653-1.3413086L120.5863953,149.08255
			L120.5863953,149.08255z"/>
		<path fill="#9C9B9A" d="M119.9673386,148.9793701l-0.6190643,0.4127045l-2.579422,1.6508331
			c2.0635376-1.3412933,4.8493118-3.0953064,6.8096848-4.5397797l0,0c-2.0635376,1.3413086-4.7461395,3.3016663-6.8096771,4.5397797
			l2.6825943-1.5476532l0.7222366-0.4127045l-1.238121,0.8254242l-2.2698898,1.3413086l-4.0239029,2.0635376l3.817543-2.1667175
			l2.1667175-1.3413086L119.9673386,148.9793701L119.9673386,148.9793701z"/>
		<path fill="#9C9B9A" d="M119.9673386,148.1539764l-0.7222366,0.4126892L116.5625,150.217514
			c2.0635376-1.2381287,4.8493118-2.7857819,6.8096848-4.1270905v0.1031952
			c-2.0635376,1.2381134-4.7461395,2.9921265-6.8096771,4.1270752l2.579422-1.3413086l0.7222366-0.4127045l-1.341301,0.8254242
			l-2.2698898,1.1349487l-3.8175507,1.6508484l3.9207306-2.1667328l2.2698898-1.3412933L119.9673386,148.1539764
			L119.9673386,148.1539764z"/>
		<path fill="#9C9B9A" d="M120.6895752,146.8126678l-0.6190567,0.4127045l-2.579422,1.4444733
			c1.9603577-0.9285889,4.5397873-2.2698975,6.3969727-3.3016663l-0.1031799,0.1031799
			c-1.9603577,1.0317688-4.5397873,2.4762421-6.5001526,3.4048462l2.3730698-1.0317688l0.6190643-0.3095398l-1.3413086,0.8254242
			l-2.0635376,0.8254242l-3.5080185,1.1349487l3.9207306-1.9603577l2.1667099-1.1349487L120.6895752,146.8126678
			L120.6895752,146.8126678z"/>
		<path fill="#9C9B9A" d="M124.1975861,142.1697083l-0.5158844,0.2063446l-2.1667175,0.6190643
			c1.341301-0.2063446,3.198494-0.5158844,4.6429596-0.9285889l-0.2063522,0.2063599
			c-1.4444656,0.3095245-3.3016586,0.8254089-4.7461472,1.1349487h1.5476608h0.4126968l-1.1349487,0.5158844h-1.3413086
			l-2.1667099-0.4127045l3.3016663-0.9285889l1.7540054-0.5158844L124.1975861,142.1697083L124.1975861,142.1697083z"/>
		<path fill="#9C9B9A" d="M126.7770157,139.2807465h-0.4127045l-1.6508331,0.1031799
			c1.0317688,0.2063446,2.2698898,0.4127045,3.3016586,0.5158844l-0.2063522,0.2063446
			c-1.0317688-0.1031799-2.3730774-0.2063446-3.4048462-0.4126892l1.0317688,0.6190643l0.3095398,0.1031799l-0.9285889,0.2063446
			l-0.9285889-0.5158844l-1.4444733-1.2381134l2.6826096-0.2063446l1.3413086-0.1031952L126.7770157,139.2807465
			L126.7770157,139.2807465z"/>
		<path fill="#9C9B9A" d="M129.5627899,136.3917847l-0.3095398-0.1031799l-1.1349487-0.4127045
			c0.5158844,0.6190643,1.3413086,1.4444733,1.857193,2.0635376l-0.2063599,0.2063446
			c-0.6190643-0.5158844-1.4444733-1.2381134-2.0635376-1.8571777l0.4127045,1.1349487l0.1031799,0.3095398l-0.722229-0.1031952
			l-0.4127045-0.9285736l-0.6190643-1.9603577l1.9603577,0.6190643l0.9285889,0.4127045L129.5627899,136.3917847
			L129.5627899,136.3917847z"/>
		<path fill="#9C9B9A" d="M132.4517517,133.6060028l-0.1031799-0.3095245l-0.6190796-0.9285889
			c0.1031799,1.0317688,0.3095398,2.3730774,0.4127045,3.4048462l-0.3095398,0.2063446
			c-0.1031799-0.9285889-0.3095245-2.2698822-0.6190643-3.1984863l-0.1031799,1.6508331v0.4127045l-0.4127045-0.3095398v-1.3412933
			l0.2063599-2.6826172l1.2381134,1.3413086l0.5158844,0.8254242L132.4517517,133.6060028L132.4517517,133.6060028z"/>
		<path fill="#9C9B9A" d="M135.2375183,131.0265808v-0.4127045l-0.1031799-1.444458
			c-0.3095398,1.444458-0.6190643,3.301651-1.0317688,4.6429596l-0.2063446,0.2063446
			c0.3095245-1.3412933,0.6190643-3.1984863,0.8254089-4.5397797l-0.6190643,2.1667328l-0.2063446,0.5158844l-0.1031952-0.6190796
			l0.5158844-1.7539978l0.9285889-3.3016663l0.5158844,2.1667328v1.3412933L135.2375183,131.0265808L135.2375183,131.0265808z"/>
		<path fill="#9C9B9A" d="M137.9201355,128.9630432l0.1031799-0.5158844l0.4127045-1.9603577
			c-0.6190796,1.7540131-1.5476532,4.0238953-2.2698975,5.6747437l-0.2063446,0.2063446
			c0.6190643-1.6508331,1.5476532-3.9207306,2.1667175-5.5715485l-1.0317688,2.4762421l-0.3095398,0.6190643l0.1031952-0.8254242
			l0.8254089-2.0635376l1.5476532-3.7143707l-0.3095245,2.7857742l-0.4127045,1.6508331L137.9201355,128.9630432
			L137.9201355,128.9630432z"/>
		<path fill="#9C9B9A" d="M140.086853,127.3122101l0.3095398-0.619072l0.9285889-2.2698898
			c-0.9285889,1.9603577-2.2698975,4.5397797-3.3016663,6.5001526l-0.2063446,0.1031799
			c1.0317688-1.8571777,2.3730621-4.4366074,3.1984863-6.396965l-1.4444733,2.6826096l-0.4127045,0.722229l0.4127045-1.0317688
			l1.1349487-2.2698898l1.9603577-4.0238953l-0.9285889,3.4048462l-0.8254089,1.9603577L140.086853,127.3122101
			L140.086853,127.3122101z"/>
		<path fill="#9C9B9A" d="M141.6345062,126.5899734l0.4127045-0.619072l1.2381134-2.579422
			c-1.2381134,2.0635376-2.7857666,4.8493195-4.1270752,6.8096924l-0.1031799,0.1031799
			c1.2381134-2.0635376,2.8889618-4.7461472,4.0238953-6.8096924l-1.6508331,2.6826096l-0.4127045,0.7222366l0.6190643-1.238121
			l1.3413086-2.2698898l2.1667175-4.0238953l-1.5476532,3.817543l-1.1349487,2.1667252L141.6345062,126.5899734
			L141.6345062,126.5899734z"/>
		<path fill="#9C9B9A" d="M142.3567505,126.5899734l0.4126892-0.7222366l1.5476532-2.6826096
			c-1.3412933,2.0635376-2.9921112,4.8493118-4.4365997,6.8096848h-0.1031952
			c1.3413086-2.0635376,3.1985016-4.7461472,4.436615-6.9128494l-1.6508331,2.579422l-0.4127045,0.7222366l0.7222443-1.341301
			l1.3412933-2.2698975l2.1667328-3.817543l-1.9603577,4.0238953l-1.2381287,2.2698898L142.3567505,126.5899734
			L142.3567505,126.5899734z"/>
		<path fill="#9C9B9A" d="M142.3567505,127.41539l0.4126892-0.7222366l1.6508484-2.6826096
			c-1.3413086,1.9603577-2.9921265,4.5397797-4.436615,6.5001526v-0.1031799
			c1.3413086-1.9603577,3.1984863-4.5397797,4.436615-6.5001526l-1.5476532,2.3730698l-0.4127045,0.619072l0.8254089-1.341301
			l1.3413086-2.0635452l2.0635376-3.5080109l-2.1667175,4.0238953l-1.3413086,2.2698898L142.3567505,127.41539
			L142.3567505,127.41539z"/>
		<path fill="#9C9B9A" d="M141.5313263,128.8598633l0.4127045-0.6190643l1.6508331-2.4762497
			c-1.1349487,1.7540054-2.7857819,4.1270828-4.0238953,5.777916l0.1031799-0.2063446
			c1.2381287-1.7540131,2.9921265-4.0238953,4.1270752-5.8810883l-1.3412933,2.0635376l-0.4127045,0.5158844l0.8254242-1.341301
			l1.1349487-1.7540054l0.722229-1.1349487c-0.4126892,0.6190643-0.8254089,1.4444656-1.2381134,1.96035l-1.3413086,2.0635452
			L141.5313263,128.8598633L141.5313263,128.8598633z"/>
		<g>
			<polygon fill="#9C9B9A" points="140.7059021,129.994812 141.4281464,129.0662231 141.0154419,129.5821075 			"/>
			<polygon fill="#9C9B9A" points="138.5391998,132.8837738 140.4995575,130.4075165 139.9836731,131.1297607 
				138.4360199,133.1933136 			"/>
		</g>
		<path fill="#9C9B9A" d="M131.5231628,139.6934509l-2.0635376,2.1667175L131.5231628,139.6934509z"/>
		<path fill="#9C9B9A" d="M131.5231628,139.6934509l-2.3730774,2.2698975L131.5231628,139.6934509z"/>
		<path fill="#9C9B9A" d="M131.5231628,139.6934509l-2.4762573,2.2698975L131.5231628,139.6934509z"/>
		<path fill="#9C9B9A" d="M131.5231628,139.6934509l-2.4762573,2.0635376L131.5231628,139.6934509z"/>
		<path fill="#9C9B9A" d="M131.5231628,139.6934509l-2.2698975,1.6508331L131.5231628,139.6934509z"/>
		<path fill="#9C9B9A" d="M131.5231628,139.6934509l-1.857193,1.0317688L131.5231628,139.6934509z"/>
		<path fill="#9C9B9A" d="M131.5231628,139.6934509l-1.2381287,0.3095245L131.5231628,139.6934509z"/>
		<path fill="#9C9B9A" d="M131.5231628,139.6934509l-0.5158844-0.5158844L131.5231628,139.6934509z"/>
		<polygon fill="#9C9B9A" points="131.5231628,139.6934509 131.8327026,138.3521576 131.5231628,139.6934509 		"/>
		<polygon fill="#9C9B9A" points="131.5231628,139.6934509 131.6263275,139.6934509 132.7612762,137.5267334 
			131.6263275,139.590271 		"/>
		<polygon fill="#9C9B9A" points="131.5231628,139.6934509 131.6263275,139.6934509 131.5231628,139.6934509 
			131.6263275,139.6934509 131.5231628,139.6934509 131.7295074,139.4870911 133.5867004,136.8045044 131.7295074,139.4870911 		"/>
		<polygon fill="#9C9B9A" points="131.5231628,139.6934509 131.7295074,139.4870911 131.5231628,139.6934509 
			131.7295074,139.590271 131.5231628,139.6934509 131.8327026,139.3839264 134.4121246,136.1854401 131.9358673,139.2807465 		"/>
		<polygon fill="#9C9B9A" points="131.5231628,139.6934509 131.8327026,139.3839264 131.5231628,139.6934509 
			131.8327026,139.3839264 131.5231628,139.6934509 132.0390472,139.1775665 135.0311737,135.7727356 132.1422119,139.1775665 		"/>
		<polygon fill="#9C9B9A" points="131.5231628,139.6934509 132.0390472,139.2807465 131.5231628,139.6934509 
			132.0390472,139.2807465 131.5231628,139.6934509 132.2453918,139.0743866 135.3407135,135.6695557 132.2453918,139.0743866 		"/>
		<polygon fill="#9C9B9A" points="131.5231628,139.6934509 132.1422119,139.1775665 131.5231628,139.6934509 
			132.1422119,139.1775665 131.5231628,139.6934509 132.348587,138.9712067 135.5470581,135.7727356 132.348587,138.9712067 		"/>
		<polygon fill="#9C9B9A" points="131.5231628,139.6934509 132.2453918,139.1775665 131.5231628,139.6934509 
			132.2453918,139.1775665 131.5231628,139.6934509 132.4517517,138.9712067 135.3407135,136.1854401 132.4517517,138.9712067 		"/>
		<polygon fill="#9C9B9A" points="131.5231628,139.6934509 132.2453918,139.1775665 131.5231628,139.6934509 
			132.2453918,139.1775665 131.5231628,139.6934509 132.4517517,138.9712067 134.928009,136.8045044 132.4517517,139.0743866 		"/>
		<polygon fill="#9C9B9A" points="131.5231628,139.6934509 132.1422119,139.2807465 131.5231628,139.6934509 
			132.1422119,139.2807465 131.5231628,139.6934509 132.348587,139.1775665 134.2057495,137.7330933 132.2453918,139.2807465 		"/>
	</g>
</g>
<g>
	<path fill="#808081" d="M224.3824463,33.8338737c-1.1349487-3.9207287-3.3016663-11.5558205-15.2702026-11.5558205
		c-5.158844,0-16.4051361,3.0953102-16.4051361,23.0084686c0,14.4447784,6.293808,23.0084686,16.4051361,23.0084686
		c11.7621765,0,14.1352539-8.2541542,15.3733673-12.4844093h13.928894
		c-2.9921265,16.7146721-14.5479584,24.556118-28.6832123,24.556118c-19.913147,0-30.9530945-13.8257217-30.9530945-35.1833496
		C178.7781982,20.5240479,193.8420563,10,209.2154083,10c21.7703552,0,28.5800323,14.8574867,29.3022614,23.6275291h-14.1352234
		V33.8338737z"/>
	<path fill="#808081" d="M248.4226837,11.857173h13.4130096v45.6042213h0.2063599l26.4132996-45.6042213h14.1352539v66.9618607
		h-13.4130249V33.4211617h-0.1031799l-26.5164795,45.2946968h-14.1352539V11.857173H248.4226837z"/>
	<path fill="#808081" d="M316.82901,11.857173h30.4371948c14.1352844,0,20.9449158,8.0478029,20.9449158,21.4608154
		c0,12.4844131-8.2541504,21.4608116-22.0798645,21.4608116H330.861084V78.819046h-13.928894V11.857173H316.82901z
		 M330.7579041,43.1198006h13.2066345c6.2937927,0,10.1113281-2.888958,10.1113281-9.9049873
		c0-7.0160389-3.8175659-9.9049892-10.1113281-9.9049892h-13.2066345V43.1198006z"/>
	<path fill="#808081" d="M378.9415588,11.857173h49.1122437v11.5558176h-35.6992188v14.8574867h32.9134216v11.5558205h-32.8102417
		v16.9210243h37.2468872v12.071701h-50.763092V11.857173z"/>
	<path fill="#808081" d="M440.0223083,11.857173h13.928894v25.4847107h26.3101196V11.857173h13.928894v66.9618607h-13.928894
		V48.8977089h-26.3101196v29.9213219h-13.928894V11.857173z"/>
	<path fill="#808081" d="M526.690979,11.857173h15.8892822l23.7307129,66.9618607h-15.1670532l-4.3334351-13.8257141h-24.6593018
		l-4.6430054,13.8257141h-14.8574219L526.690979,11.857173z M525.7624512,53.4375h17.1273193l-8.2541504-26.5164814h-0.2063599
		L525.7624512,53.4375z"/>
	<path fill="#808081" d="M204.0565796,87.3827209h15.8892517l23.7306976,66.9618683h-15.1670074l-4.3334351-13.8257141h-24.6592865
		l-4.6429596,13.8257141h-14.7543182L204.0565796,87.3827209z M203.1279755,128.9630432h17.0242004l-8.3573303-26.5164795
		h-0.2063599L203.1279755,128.9630432z"/>
	<path fill="#808081" d="M278.8598938,118.2326431h27.960968v36.1119461h-9.3890991l-1.3413086-8.4605103
		c-3.5079956,4.1270752-8.6668396,10.1113434-20.8417664,10.1113434c-16.0956116,0-30.7467346-11.5558167-30.7467346-34.9769897
		c0-18.1591492,10.1113434-35.2865219,32.7070923-35.2865219c20.5322266,0,28.683197,13.3098221,29.4054565,22.4925842h-14.032074
		c0-2.579422-4.7461548-10.9367676-14.6511536-10.9367676s-19.190918,6.8096924-19.190918,23.9370575
		c0,18.1591568,10.0081787,22.9052811,19.5004272,22.9052811c3.0953064,0,13.309845-1.2381134,16.1987915-14.651123h-15.5797119
		v-11.2462997H278.8598938z"/>
	<path fill="#808081" d="M320.543396,87.3827209h49.1122437v11.5558167h-35.6992493v14.8574753h32.8102722v11.5558395h-32.8102722
		v16.9210205h37.3500671v12.071701H320.543396V87.3827209z"/>
	<path fill="#808081" d="M435.8952332,154.3445892h-14.1352539l-26.51651-45.2946854h-0.2063599v45.2946854H381.624115v-66.961853
		h14.1352539l26.5164795,45.6042175h0.2063904V87.3827362h13.4129944V154.3445892z"/>
	<path fill="#808081" d="M492.2298584,109.3594208c-1.1349487-3.9207306-3.3016663-11.5558243-15.2701721-11.5558243
		c-5.158844,0-16.4051208,3.095314-16.4051208,23.0084763c0,14.4447784,6.1906128,23.0084686,16.4051208,23.0084686
		c11.7621765,0,14.1352539-8.2541656,15.3733826-12.4844208h13.928894
		c-2.9921265,16.7146606-14.5479736,24.5561218-28.683197,24.5561218c-19.8099976,0-30.9530945-13.8257141-30.9530945-35.1833572
		c0-24.6592941,15.1670227-35.1833496,30.4371948-35.1833496c21.7703552,0,28.5800476,14.8574905,29.3022766,23.627533h-14.1352844
		V109.3594208z"/>
	<path fill="#808081" d="M544.437439,154.3445892h-13.928894v-25.2783661l-23.1116333-41.6834869h16.5083008l13.928894,29.0959015
		l13.206604-29.0959015h15.8892822l-22.3894043,41.8898621v25.071991H544.437439z"/>
</g>
</svg>
